<svg width="16" height="17" viewBox="0 0 16 17" fill="none" xmlns="http://www.w3.org/2000/svg">
<path d="M15.4187 1.2686L12.1687 0.5186C11.8156 0.43735 11.4531 0.621725 11.3093 0.952975L9.80933 4.45297C9.67808 4.75922 9.76558 5.1186 10.025 5.32797L11.9187 6.87797C10.7937 9.27485 8.82808 11.2686 6.38121 12.4155L4.83121 10.5217C4.61871 10.2624 4.26246 10.1748 3.95621 10.3061L0.456209 11.8061C0.121834 11.953 -0.0625407 12.3155 0.0187093 12.6686L0.768709 15.9186C0.846834 16.2561 1.14683 16.4998 1.49996 16.4998C9.50308 16.4998 16 10.0155 16 1.99985C16 1.64985 15.7593 1.34672 15.4187 1.2686Z" fill="white"/>
</svg>
