<svg width="20" height="21" viewBox="0 0 20 21" fill="none" xmlns="http://www.w3.org/2000/svg">
<path d="M18.125 10.5H15V8C15 6.62109 16.1211 5.5 17.5 5.5H17.8125C18.332 5.5 18.75 5.08203 18.75 4.5625V2.6875C18.75 2.16797 18.332 1.75 17.8125 1.75H17.5C14.0469 1.75 11.25 4.54688 11.25 8V17.375C11.25 18.4102 12.0898 19.25 13.125 19.25H18.125C19.1602 19.25 20 18.4102 20 17.375V12.375C20 11.3398 19.1602 10.5 18.125 10.5ZM6.875 10.5H3.75V8C3.75 6.62109 4.87109 5.5 6.25 5.5H6.5625C7.08203 5.5 7.5 5.08203 7.5 4.5625V2.6875C7.5 2.16797 7.08203 1.75 6.5625 1.75H6.25C2.79688 1.75 0 4.54688 0 8V17.375C0 18.4102 0.839844 19.25 1.875 19.25H6.875C7.91016 19.25 8.75 18.4102 8.75 17.375V12.375C8.75 11.3398 7.91016 10.5 6.875 10.5Z" fill="#D08700"/>
</svg>
