<svg width="24" height="25" viewBox="0 0 24 25" fill="none" xmlns="http://www.w3.org/2000/svg">
<path d="M21.7031 9.5H14.8078L12.7125 3.24687C12.6094 2.94219 12.3234 2.75 12 2.75C11.6766 2.75 11.3906 2.94219 11.2875 3.24687L9.19219 9.5H2.25C1.8375 9.5 1.5 9.8375 1.5 10.25C1.5 10.2922 1.50469 10.3391 1.51406 10.3766C1.52344 10.5406 1.59844 10.7234 1.82812 10.9062L7.49531 14.9L5.32031 21.2234C5.2125 21.5281 5.32031 21.8703 5.57812 22.0672C5.71406 22.1656 5.84062 22.25 6 22.25C6.15469 22.25 6.3375 22.1703 6.46875 22.0812L12 18.1391L17.5312 22.0812C17.6625 22.175 17.8453 22.25 18 22.25C18.1594 22.25 18.2859 22.1703 18.4172 22.0672C18.6797 21.8703 18.7828 21.5328 18.675 21.2234L16.5 14.9L22.1203 10.8687L22.2562 10.7516C22.3781 10.6203 22.5 10.4422 22.5 10.25C22.5 9.8375 22.1156 9.5 21.7031 9.5Z" fill="#FCC800"/>
</svg>
