<svg width="16" height="17" viewBox="0 0 16 17" fill="none" xmlns="http://www.w3.org/2000/svg">
<g clip-path="url(#clip0_24_136)">
<path fill-rule="evenodd" clip-rule="evenodd" d="M13.3656 4.25449C13.5156 4.40452 13.5998 4.60796 13.5998 4.82009C13.5998 5.03222 13.5156 5.23567 13.3656 5.38569L6.96562 11.7857C6.8156 11.9357 6.61215 12.0199 6.40002 12.0199C6.18789 12.0199 5.98444 11.9357 5.83442 11.7857L2.63442 8.58569C2.48869 8.43481 2.40806 8.23273 2.40988 8.02297C2.4117 7.81321 2.49584 7.61256 2.64417 7.46424C2.79249 7.31591 2.99314 7.23178 3.2029 7.22995C3.41266 7.22813 3.61474 7.30877 3.76562 7.45449L6.40002 10.0889L12.2344 4.25449C12.3844 4.10452 12.5879 4.02026 12.8 4.02026C13.0122 4.02026 13.2156 4.10452 13.3656 4.25449Z" fill="#D08700"/>
</g>
<defs>
<clipPath id="clip0_24_136">
<rect width="16" height="16" fill="white" transform="translate(0 0.0200195)"/>
</clipPath>
</defs>
</svg>
